<svg t="1780494089922" class="icon" viewBox="0 0 1024 1024" version="1.1" xmlns="http://www.w3.org/2000/svg" p-id="14750" width="200" height="200"><path d="M660.945455 515.10303l65.163636 66.715152c12.412121 12.412121 12.412121 31.030303 0 43.442424-12.412121 10.860606-31.030303 10.860606-41.890909 0l-83.781818-83.781818c-1.551515 0-1.551515-1.551515-3.103031-1.551515-12.412121-12.412121-12.412121-31.030303 0-43.442425l83.781819-83.781818c10.860606-12.412121 29.478788-12.412121 41.890909 0 12.412121 12.412121 12.412121 31.030303 0 43.442425l-62.060606 58.957575z m-280.824243-103.951515v201.69697c0 17.066667-13.963636 31.030303-31.030303 31.030303s-31.030303-13.963636-31.030303-31.030303v-201.69697c0-17.066667 13.963636-31.030303 31.030303-31.030303s31.030303 13.963636 31.030303 31.030303zM198.593939 179.975758C263.757576 147.393939 384.775758 125.672727 512 124.121212c127.224242 1.551515 248.242424 23.272727 311.854545 55.854546 99.29697 49.648485 136.533333 155.151515 136.533334 345.987878 0 153.6-40.339394 269.963636-113.260606 310.303031C761.793939 881.260606 679.563636 899.878788 512 899.878788s-249.793939-18.618182-338.230303-63.612121C102.4 795.927273 62.060606 679.563636 62.060606 525.963636c0-189.284848 38.787879-296.339394 136.533333-345.987878zM131.878788 525.963636c0 130.327273 32.581818 223.418182 72.921212 246.690909 77.575758 40.339394 150.49697 55.854545 307.2 55.854546 158.254545 0 229.624242-17.066667 305.648485-55.854546 43.442424-24.824242 76.024242-116.363636 76.024242-248.242424 0-166.012121-29.478788-248.242424-97.745454-282.375757-55.854545-24.824242-166.012121-46.545455-283.927273-48.09697-117.915152 1.551515-229.624242 21.721212-283.927273 49.648485-68.266667 34.133333-96.193939 116.363636-96.193939 282.375757z" p-id="14751" fill="#3713a6"></path><path d="M512 902.981818c-159.806061 0-246.690909-17.066667-339.781818-65.163636-72.921212-40.339394-113.260606-155.151515-113.260606-313.406061 0-195.490909 41.890909-300.993939 139.636363-349.090909C263.757576 142.739394 387.878788 121.018182 512 121.018182c124.121212 1.551515 248.242424 23.272727 314.957576 57.40606 97.745455 49.648485 139.636364 153.6 139.636363 349.09091 0 158.254545-41.890909 273.066667-114.812121 313.40606-94.642424 46.545455-179.975758 62.060606-339.781818 62.060606zM201.69697 184.630303C107.054545 232.727273 66.715152 335.127273 66.715152 527.515152c0 153.6 40.339394 268.412121 110.157575 305.648484 93.090909 46.545455 176.872727 63.612121 336.678788 63.612122 159.806061 0 243.587879-15.515152 335.127273-62.060606 71.369697-38.787879 111.709091-152.048485 111.709091-307.2 0-192.387879-40.339394-294.787879-134.981818-342.884849-65.163636-32.581818-187.733333-54.30303-310.303031-55.854545-125.672727 0-248.242424 21.721212-313.40606 55.854545z m310.30303 648.533333c-150.49697 0-226.521212-13.963636-308.751515-57.40606-46.545455-26.375758-76.024242-124.121212-76.024243-249.79394 0-167.563636 29.478788-249.793939 99.29697-285.478788 57.406061-29.478788 172.218182-48.09697 285.478788-49.648484 113.260606 1.551515 228.072727 20.169697 285.478788 49.648484 71.369697 35.684848 99.29697 117.915152 99.29697 285.478788 0 125.672727-31.030303 224.969697-77.575758 251.345455-80.678788 41.890909-158.254545 55.854545-307.2 55.854545z m0-634.569697c-111.709091 1.551515-224.969697 20.169697-282.375758 49.648485-68.266667 34.133333-96.193939 114.812121-96.193939 279.272728 0 139.636364 35.684848 223.418182 71.369697 243.587878 82.230303 41.890909 156.70303 55.854545 305.648485 55.854546 147.393939 0 224.969697-13.963636 304.09697-54.303031 44.993939-24.824242 72.921212-121.018182 72.921212-243.587878 0-164.460606-27.927273-245.139394-94.642425-279.272728-55.854545-31.030303-169.115152-51.2-280.824242-51.2z m-162.909091 449.939394c-18.618182 0-34.133333-15.515152-34.133333-34.133333v-201.69697c0-18.618182 15.515152-34.133333 34.133333-34.133333s34.133333 15.515152 34.133333 34.133333v201.69697c1.551515 17.066667-15.515152 34.133333-34.133333 34.133333z m0-263.757575c-15.515152 0-27.927273 12.412121-27.927273 27.927272v201.69697c0 15.515152 12.412121 27.927273 27.927273 27.927273s27.927273-12.412121 27.927273-27.927273v-201.69697c-1.551515-17.066667-12.412121-27.927273-27.927273-27.927272z m355.29697 252.896969c-9.309091 0-17.066667-3.10303-23.272727-9.309091L597.333333 543.030303l-1.551515-1.551515c-13.963636-13.963636-13.963636-35.684848 0-49.648485l83.781818-83.781818c6.206061-6.206061 13.963636-9.309091 23.272728-9.309091s17.066667 3.10303 23.272727 9.309091c13.963636 13.963636 13.963636 35.684848 0 49.648485L667.151515 518.206061l62.060606 63.612121c12.412121 13.963636 13.963636 35.684848 0 48.09697-7.757576 4.654545-15.515152 7.757576-24.824242 7.757575z m-3.103031-232.727272c-7.757576 0-13.963636 3.10303-18.618181 7.757575L598.884848 496.484848c-10.860606 10.860606-10.860606 27.927273 0 37.236364 1.551515 1.551515 1.551515 1.551515 3.103031 1.551515l1.551515 1.551515 83.781818 85.333334c9.309091 10.860606 26.375758 10.860606 35.684849 0 10.860606-10.860606 10.860606-27.927273 0-38.787879l-68.266667-68.266667 63.612121-65.163636c10.860606-10.860606 10.860606-27.927273 0-37.236364-4.654545-6.206061-10.860606-7.757576-17.066667-7.757575z" p-id="14752" fill="#3713a6"></path></svg>