<svg t="1752827635934" class="icon" viewBox="0 0 1024 1024" version="1.1" xmlns="http://www.w3.org/2000/svg" p-id="12141" width="32" height="32"><path d="M382.141 426.231L201.877 319.542V260.46l180.264-106.201v69.58l-125.737 65.43 125.737 67.871v69.091zM464.944 473.106l65.11-370.117h37.847l-65.828 370.117h-37.129zM650.704 426.476v-69.092l125.916-67.383-125.916-66.65v-68.604l180.443 106.201v58.594L650.704 426.476zM189.379 706.704l39.124 16.885c-5.998 29.688-15.973 51.738-29.922 66.147-13.951 14.412-31.649 21.616-53.096 21.616-26.538 0-48.349-12.339-65.433-37.017-17.087-24.678-25.628-58.415-25.628-101.216 0-45.273 8.588-80.435 25.764-105.483s39.758-37.573 67.75-37.573c24.446 0 44.304 9.834 59.572 29.502 9.086 11.628 15.902 28.327 20.448 50.098l-39.941 12.988c-2.364-14.102-7.293-25.234-14.791-33.398s-16.61-12.246-27.332-12.246c-14.814 0-26.834 7.236-36.057 21.709C100.612 613.188 96 636.631 96 669.038c0 34.39 4.543 58.882 13.632 73.477 9.086 14.598 20.902 21.895 35.443 21.895 10.723 0 19.948-4.639 27.673-13.916 7.724-9.278 13.268-23.873 16.631-43.79z" p-id="12142"></path><path d="M398.673 806.714h-43.895l-17.449-61.787h-79.883l-16.495 61.787h-42.804l77.838-272.012h42.668l80.02 272.012z m-74.294-107.617l-27.536-100.938-26.991 100.938h54.527z" p-id="12143"></path><path d="M375.815 806.714V534.702h39.26l81.792 181.65v-181.65h37.487v272.012h-40.486l-80.564-177.383v177.383h-37.489z" p-id="12144"></path><path d="M583.337 806.714l-71.432-272.012h43.759l50.574 201.318 48.938-201.318h42.804l-71.567 272.012h-43.076zM833.389 806.714h-43.895l-17.449-61.787h-79.883l-16.494 61.787h-42.805l77.838-272.012h42.668l80.02 272.012z m-74.294-107.617l-27.536-100.938-26.991 100.938h54.527z" p-id="12145"></path><path d="M799.898 718.208l39.26-5.195c2.362 17.938 7.156 31.111 14.382 39.521 7.225 8.413 16.972 12.617 29.24 12.617 12.995 0 22.786-3.74 29.377-11.226 6.588-7.482 9.883-16.235 9.883-26.255 0-6.431-1.387-11.904-4.157-16.421-2.773-4.514-7.613-8.442-14.519-11.782-4.727-2.227-15.495-6.184-32.308-11.875-21.63-7.297-36.806-16.265-45.53-26.904-12.269-14.966-18.403-33.213-18.403-54.736 0-13.853 2.884-26.812 8.656-38.872 5.771-12.061 14.086-21.245 24.946-27.554 10.858-6.309 23.969-9.463 39.328-9.463 25.083 0 43.963 7.485 56.641 22.451 12.678 14.968 19.334 34.946 19.971 59.932l-40.351 2.412c-1.728-13.978-5.431-24.028-11.109-30.151-5.681-6.123-14.201-9.185-25.561-9.185-11.723 0-20.903 3.278-27.536 9.834-4.272 4.206-6.407 9.834-6.407 16.885 0 6.433 1.998 11.938 5.998 16.514 5.089 5.815 17.449 11.875 37.079 18.184s34.147 12.835 43.554 19.575c9.406 6.743 16.768 15.957 22.084 27.646s7.975 26.133 7.975 43.325c0 15.586-3.183 30.184-9.542 43.789-6.362 13.608-15.359 23.721-26.991 30.337-11.635 6.616-26.129 9.927-43.486 9.927-25.266 0-44.668-7.946-58.208-23.843-13.544-15.893-21.631-39.057-24.266-69.487z" p-id="12146"></path></svg>